<svg version="1.2" xmlns="http://www.w3.org/2000/svg" viewBox="0 0 110 97" width="110" height="97">
	<title>follow-svg</title>
	<style>
		.s0 { fill: #ededed  } 
	</style>
	<path fill-rule="evenodd" class="s0" d="m71.1 88.2q-3.9 1.7-8.3 2.7-4.5 1-9.4 1c-12.3 0-23.5-5-31.6-13.1-8-8.1-13.1-19.3-13.1-31.6 0-12.3 5.1-23.5 13.1-31.6 8.1-8.1 19.3-13.1 31.6-13.1 12.4 0 23.5 5 31.6 13.1 8.1 8.1 13.1 19.3 13.1 31.6q0 4.3-0.8 8.5-0.7 3.6-1.9 7l5.1 3c0.5 0.3 0.7 0.8 0.7 1.3l0.1 18c0 0.6-0.4 1.1-0.9 1.4l-15.5 8.9c-0.5 0.3-1.1 0.3-1.5 0 0 0-12.2-7.1-12.3-7.1zm21.6-27q1.1-2.9 1.7-6.1 0.7-3.8 0.7-7.9c0-11.5-4.6-21.9-12.2-29.5-7.5-7.5-18-12.2-29.5-12.2-11.5 0-21.9 4.7-29.4 12.2-7.6 7.6-12.3 18-12.3 29.5 0 10.4 3.9 19.9 10.2 27.2 2-6.3 5.8-11.8 10.9-15.9 3.7-2.9 8-5 12.7-6.2-1.5-0.8-2.8-1.7-3.9-2.9-3-3-4.9-7.2-4.9-11.8 0-4.6 1.9-8.8 4.9-11.8 3-3 7.2-4.9 11.8-4.9 4.6 0 8.8 1.9 11.8 4.9 3.1 3 4.9 7.2 4.9 11.8 0 4.6-1.8 8.8-4.8 11.8l-0.1 0.1q-1.7 1.6-3.8 2.8 2.6 0.6 5 1.6c3.7 1.6 7.2 3.9 10.1 6.8l6.9-4c0.5-0.3 1-0.3 1.5 0 0 0 7.8 4.5 7.8 4.5zm-18.9 1c-2.5-2.3-5.4-4.2-8.6-5.5-3.6-1.5-7.6-2.4-11.8-2.4-7.1 0-13.6 2.5-18.7 6.6-5.1 4-8.8 9.6-10.5 16.1 7.6 7.3 17.9 11.9 29.2 11.9q4.6 0 8.8-0.9 2.9-0.7 5.6-1.7c-0.5-0.3-0.8-0.8-0.8-1.3v-18c0-0.6 0.4-1.2 0.9-1.4 0 0 5.9-3.4 5.9-3.4zm24.4 5.6l-14.1-8.1-14.1 8.1v16.3l14.1 8.2 14.1-8.2zm-23 9.2c-0.6-0.5-0.6-1.5 0-2.1 0.6-0.6 1.5-0.6 2.1 0l4.2 4.2 9.5-9.4c0.6-0.6 1.5-0.6 2.1 0 0.6 0.5 0.6 1.5 0 2.1l-10.5 10.5c-0.6 0.6-1.6 0.6-2.2 0 0 0-5.2-5.3-5.2-5.3zm-12.1-49.1c-2.4-2.5-5.9-4-9.7-4-3.8 0-7.2 1.5-9.7 4-2.4 2.5-4 5.9-4 9.7 0 3.8 1.6 7.2 4 9.7 2.5 2.5 5.9 4 9.7 4 3.8 0 7.2-1.5 9.7-3.9v-0.1c2.5-2.5 4-5.9 4-9.7 0-3.8-1.5-7.2-4-9.7z"/>
</svg>