<svg version="1.2" xmlns="http://www.w3.org/2000/svg" viewBox="0 0 64 59" width="64" height="59">
	<title>unfollow-svg</title>
	<style>
		.s0 { fill: #ededed  } 
	</style>
	<path fill-rule="evenodd" class="s0" d="m46.9 58c-4.7 0-8.8-2.5-11-6.2-6.9 1.8-14.6 0.5-20.4-3.5-20.5-13.9-10.7-46.2 14.1-46.3 16.6-0.3 29.3 16.8 24.1 32.6 10.7 6.8 6 23.3-6.8 23.4zm-31.6-12.3c0.8-5.5 4.6-9.9 9.7-11.5-2.7-1.6-4.5-4.5-4.5-7.8 0-5 4.1-9 9.1-9 9.3 0 12.5 12.2 4.6 16.8q2.1 0.7 3.8 1.9c3.5-3.4 9.4-4.5 13.9-2.4 4.4-14.6-7.2-29.9-22.3-29.7-12.8 0-23.3 10.5-23.3 23.3 0 7.2 3.3 14 9 18.4zm14.3-12.3c9.4-0.3 9.4-13.7 0-14-3.9 0-7.1 3.1-7.1 7 0 3.9 3.2 7 7.1 7zm5.4 16.6c-0.6-1.5-0.9-3-0.9-4.7 0-2.9 1-5.5 2.6-7.7-2.1-1.4-4.7-2.2-7.3-2.2-6.6 0.1-11.8 5.2-12.2 11.6 3.7 2.4 8 3.6 12.4 3.6q2.7 0 5.4-0.6zm22.7-4.7c-0.6-14.2-21-14.2-21.6 0 0 5.9 4.8 10.7 10.8 10.7 5.9 0 10.8-4.8 10.8-10.7z"/>
	<path fill-rule="evenodd" class="s0" d="m52.7 40.9v2h-0.8v6.5c0 1.9-1.6 3.5-3.5 3.5h-3c-1.9 0-3.5-1.6-3.5-3.5v-6.5h-0.9c0 0 0-2 0-2 0.7 0.1 2.3 0 3 0v-0.9c0-1.2 1-2.3 2.2-2.3h1.3c1.3 0 2.3 1.1 2.3 2.3v0.9c0.7 0 2.3 0.1 2.9 0zm-6.7 0c0 0 1.8 0 1.8 0-0.1-0.4 0.1-1.2-0.3-1.2h-1.3c-0.1 0-0.2 0.2-0.2 0.3 0 0 0 0.9 0 0.9zm3.9 2c-0.8 0-4.1 0-4.9 0h-1.1v6.5c0 0.8 0.7 1.5 1.5 1.5h3c0.8 0 1.5-0.7 1.5-1.5 0 0 0-6.5 0-6.5z"/>
</svg>